<?xml version="1.0" encoding="UTF-8" standalone="no"?>
<!-- Created with Inkscape (http://www.inkscape.org/) -->

<svg
   xmlns:dc="http://purl.org/dc/elements/1.1/"
   xmlns:cc="http://creativecommons.org/ns#"
   xmlns:rdf="http://www.w3.org/1999/02/22-rdf-syntax-ns#"
   xmlns:svg="http://www.w3.org/2000/svg"
   xmlns="http://www.w3.org/2000/svg"
   xmlns:sodipodi="http://sodipodi.sourceforge.net/DTD/sodipodi-0.dtd"
   xmlns:inkscape="http://www.inkscape.org/namespaces/inkscape"
   version="1.1"
   id="svg8521"
   xml:space="preserve"
   width="1718.1465"
   height="770.66797"
   viewBox="0 0 1718.1465 770.668"
   sodipodi:docname="logoWikilab.svg"
   inkscape:version="0.92.1 r15371"><metadata
     id="metadata8527"><rdf:RDF><cc:Work
         rdf:about=""><dc:format>image/svg+xml</dc:format><dc:type
           rdf:resource="http://purl.org/dc/dcmitype/StillImage" /><dc:title></dc:title></cc:Work></rdf:RDF></metadata><defs
     id="defs8525"><clipPath
       clipPathUnits="userSpaceOnUse"
       id="clipPath8549"><path
         d="M 0,836.22 H 1516 V 0 H 0 Z"
         id="path8547"
         inkscape:connector-curvature="0" /></clipPath></defs><sodipodi:namedview
     pagecolor="#ffffff"
     bordercolor="#666666"
     borderopacity="1"
     objecttolerance="10"
     gridtolerance="10"
     guidetolerance="10"
     inkscape:pageopacity="0"
     inkscape:pageshadow="2"
     inkscape:window-width="1920"
     inkscape:window-height="1080"
     id="namedview8523"
     showgrid="false"
     inkscape:zoom="0.36881598"
     inkscape:cx="615.33644"
     inkscape:cy="371.42997"
     inkscape:window-x="1920"
     inkscape:window-y="0"
     inkscape:window-maximized="1"
     inkscape:current-layer="g8529" /><g
     id="g8529"
     inkscape:groupmode="layer"
     inkscape:label="logoWikilab"
     transform="matrix(1.3333333,0,0,-1.3333333,-154.66602,942.66703)"><path
       style="fill:#ffffff;fill-opacity:1;fill-rule:nonzero;stroke:none;stroke-width:1.33333325"
       d="m 750.66602,172.29297 -596,438.66797 v 332 h 148 V 689.62695 l 448,-332 119.31836,87.00391 L 644,610.96094 v 332 H 792 V 689.62695 l 448,-332 182.666,133.33399 124.002,-94.66602 L 1240,172.29297 997.44727,350.81641 Z m 402.27738,564.26367 c -6.1894,0 -11.4735,2.19713 -15.8575,6.5918 -4.3826,4.39466 -6.5722,9.69505 -6.5722,15.90039 0,6.464 2.2114,11.95904 6.6367,16.48437 4.4267,4.524 9.7755,6.78711 16.0488,6.78711 6.1014,0 11.3439,-2.2182 15.7266,-6.6582 4.384,-4.43733 6.5762,-9.80237 6.5762,-16.0957 0,-6.376 -2.2153,-11.80445 -6.6407,-16.28711 -4.4253,-4.48 -9.7313,-6.72266 -15.9179,-6.72266 z m 217.0527,0 c -6.1893,0 -11.4734,2.19713 -15.8574,6.5918 -4.3827,4.39466 -6.5723,9.69505 -6.5723,15.90039 0,6.464 2.2114,11.95904 6.6367,16.48437 4.4267,4.524 9.7775,6.78711 16.0508,6.78711 6.1013,0 11.3419,-2.2182 15.7246,-6.6582 4.384,-4.43733 6.5762,-9.80237 6.5762,-16.0957 0,-6.376 -2.2147,-11.80445 -6.6387,-16.28711 -4.4267,-4.48 -9.7332,-6.72266 -15.9199,-6.72266 z m -167.0879,3.61914 v 194.94727 h 35.291 v -64.82227 l 59.7266,64.82227 h 43.8086 l -67.834,-73.24219 60.5898,-67.4082 h -44.3222 l -51.9688,57.98828 V 740.17578 Z m 523.4336,0 v 194.94727 h 18.0977 v -25.85547 c 7.148,9.82666 15.3693,17.19409 24.6679,22.10742 9.2987,4.912 19.6724,7.36719 31.1231,7.36719 19.9746,0 37.0648,-7.19456 51.2715,-21.58789 14.2066,-14.39067 21.3105,-31.75828 21.3105,-52.09961 0,-20.596 -7.0412,-38.11283 -21.1172,-52.54883 -14.0773,-14.43467 -31.0593,-21.6543 -50.9473,-21.6543 -11.196,0 -21.4831,2.30668 -30.8671,6.91602 -9.384,4.612 -17.8654,11.56957 -25.4414,20.8789 v -78.4707 z m -835.95703,4.7832 43.04882,190.16407 h 34.38672 l 34.38669,-122.93946 35.0332,122.93946 h 34.7227 l 42.8437,-190.16407 h -35.6113 l -27.2168,121.38868 -34.4531,-121.38868 H 987.42383 L 953.4707,866.34766 925.99414,744.95898 Z m 534.61723,0 v 190.16407 h 92.1738 v -18.35743 h -73.1699 V 744.95898 Z m 185.6406,45.89258 c -19.996,0 -37.1023,7.19785 -51.3223,21.58985 -14.22,14.39333 -21.332,31.71613 -21.332,51.96679 0,20.684 7.046,38.24698 21.1367,52.68164 14.0907,14.436 31.09,21.65235 50.998,21.65235 11.2027,0 21.5256,-2.32714 30.9629,-6.98047 9.436,-4.65467 17.9473,-11.59179 25.5313,-20.81445 v 24.17578 h 17.8398 V 794.47266 h -17.8398 v 25.85351 c -7.068,-9.82533 -15.2763,-17.19213 -24.627,-22.10547 -9.352,-4.912 -19.801,-7.36914 -31.3476,-7.36914 z m -475.3457,3.6211 v 140.65039 h 35.2929 V 794.47266 Z m 217.0547,0 v 140.65039 h 35.291 V 794.47266 Z m 446.6425,12.79687 c 9.716,0 18.8503,2.52117 27.4063,7.5625 8.556,5.04133 15.3706,12.08739 20.4453,21.13672 5.072,9.04933 7.6094,18.57298 7.6094,28.57031 0,9.99867 -2.5176,19.47874 -7.5469,28.44141 -5.0307,8.96267 -11.8018,15.92229 -20.3125,20.87695 -8.512,4.95734 -17.7994,7.4336 -27.8594,7.4336 -15.6493,0 -28.8259,-5.47264 -39.5312,-16.41797 -10.7067,-10.944 -16.0567,-24.56223 -16.0567,-40.85157 0,-10.68533 2.3862,-20.29612 7.1582,-28.82812 4.772,-8.53333 11.6059,-15.32 20.5059,-20.36133 8.8987,-5.04133 18.2923,-7.5625 28.1816,-7.5625 z m -186.8671,1.03516 c 15.6666,0 28.8607,5.46644 39.5781,16.39843 10.7173,10.93334 16.0761,24.53669 16.0761,40.80469 0,10.676 -2.3906,20.27421 -7.1679,28.79688 -4.78,8.52266 -11.5995,15.27815 -20.4649,20.27148 -8.868,4.99334 -18.2504,7.48828 -28.1504,7.48828 -9.8146,0 -19.0043,-2.5154 -27.5683,-7.55273 -8.564,-5.036 -15.3895,-12.07328 -20.4668,-21.11328 -5.0787,-9.036 -7.6172,-18.50625 -7.6172,-28.40625 0,-9.98534 2.5167,-19.45425 7.5527,-28.40625 5.0347,-8.95334 11.8126,-15.90676 20.3379,-20.85742 8.5227,-4.94934 17.82,-7.42383 27.8907,-7.42383 z"
       transform="matrix(0.75000002,0,0,-0.75000002,0,836.22002)"
       id="path8533"
       inkscape:connector-curvature="0" /></g></svg>